<?xml version="1.0" encoding="utf-8"?>
<!-- Generator: Adobe Illustrator 22.0.1, SVG Export Plug-In . SVG Version: 6.00 Build 0)  -->
<svg version="1.1" id="Слой_1" xmlns="http://www.w3.org/2000/svg" xmlns:xlink="http://www.w3.org/1999/xlink" x="0px" y="0px"
	 viewBox="0 0 28 28" style="enable-background:new 0 0 28 28;" xml:space="preserve">
<style type="text/css">
	.st0{fill:#FFFFFF;}
</style>
<title>check</title>
<path class="st0" d="M23.3,9.4c0,0.3-0.2,0.6-0.3,0.8L12.7,20.5c-0.2,0.2-0.5,0.3-0.8,0.3s-0.6-0.2-0.8-0.3l-6-6
	c-0.2-0.2-0.3-0.5-0.3-0.8S4.8,13,5,12.8l1.6-1.6c0.2-0.2,0.5-0.3,0.8-0.3c0.3,0,0.6,0.2,0.8,0.3l3.5,3.5L19.7,7
	c0.2-0.2,0.5-0.3,0.8-0.3c0.3,0,0.6,0.2,0.8,0.3L23,8.6C23.2,8.8,23.3,9.1,23.3,9.4L23.3,9.4z"/>
</svg>
