<?xml version="1.0" encoding="utf-8"?>
<!-- Generator: Adobe Illustrator 22.0.1, SVG Export Plug-In . SVG Version: 6.00 Build 0)  -->
<svg version="1.1" id="Слой_1" xmlns="http://www.w3.org/2000/svg" xmlns:xlink="http://www.w3.org/1999/xlink" x="0px" y="0px"
	 viewBox="0 0 22 22" style="enable-background:new 0 0 22 22;" xml:space="preserve">
<style type="text/css">
	.st0{fill:#FFFFFF;}
</style>
<title>close</title>
<path class="st0" d="M18.8,15.3c0,0.3-0.2,0.7-0.3,0.9L16.7,18c-0.3,0.3-0.6,0.3-0.9,0.3c-0.3,0-0.7-0.2-0.9-0.3L11,14l-3.9,3.9
	c-0.3,0.3-0.6,0.3-0.9,0.3c-0.3,0-0.7-0.2-0.9-0.3l-1.8-1.8c-0.3-0.3-0.3-0.6-0.3-0.9c0-0.3,0.2-0.7,0.3-0.9l4-3.8L3.6,6.6
	C3.4,6.4,3.3,6,3.3,5.7S3.4,5,3.6,4.8L5.4,3C5.6,2.8,6,2.7,6.2,2.7c0.3,0,0.7,0.2,0.9,0.3L11,6.9L14.9,3c0.3-0.3,0.6-0.3,0.9-0.3
	c0.3,0,0.7,0.2,0.9,0.3l1.8,1.8c0.3,0.3,0.3,0.6,0.3,0.9s-0.2,0.7-0.3,0.9l-4,3.9l3.9,3.9C18.6,14.6,18.8,14.9,18.8,15.3z"/>
</svg>
