<svg id="Слой_1" data-name="Слой 1" xmlns="http://www.w3.org/2000/svg" viewBox="0 0 32 30"><defs><style>.cls-1{fill:#fcfcfc;}</style></defs><title>eye-blocked</title><path class="cls-1" d="M29.56.44a1.49,1.49,0,0,0-2.12,0L21.12,6.76A17.33,17.33,0,0,0,16,6,17.91,17.91,0,0,0,0,16a18.36,18.36,0,0,0,5.41,6.47l-5,5a1.49,1.49,0,0,0,0,2.12,1.5,1.5,0,0,0,2.12,0l27-27a1.49,1.49,0,0,0,0-2.12ZM13,10a3,3,0,0,1,2.84,2L12,15.84A3,3,0,0,1,13,10ZM3.44,16a15.29,15.29,0,0,1,4.67-4.7l.37-.23A8.05,8.05,0,0,0,8,13.81a8,8,0,0,0,1.46,4.61l-1.91,1.9A15.39,15.39,0,0,1,3.44,16Z" transform="translate(0 0)"/><path class="cls-1" d="M24,13.81a7.82,7.82,0,0,0-.38-2.43l-10,10a7.78,7.78,0,0,0,2.43.38,8,8,0,0,0,8-8Z" transform="translate(0 0)"/><path class="cls-1" d="M25.94,9.06l-2.17,2.17.12.07A15.29,15.29,0,0,1,28.56,16a15.29,15.29,0,0,1-4.67,4.7,14.66,14.66,0,0,1-11.45,1.86L10,25a17.33,17.33,0,0,0,6,1A17.91,17.91,0,0,0,32,16a18.32,18.32,0,0,0-6.06-6.94Z" transform="translate(0 0)"/></svg>